<svg id="Layer_1" data-name="Layer 1" xmlns="http://www.w3.org/2000/svg" viewBox="0 0 512.02 447.95"><path style="fill: #8ed4ee" d="M156.7,256H16A16,16,0,0,0,0,272v32a16,16,0,0,0,16,16H158.2c15.9,0,30.8,10.9,33.4,26.6a32,32,0,0,1-62,15.5c-2.1-6.3-8.6-10.1-15.2-10.1H81.6c-9.8,0-17.7,8.8-15.9,18.4a96,96,0,0,0,189.4-31C249,291,205.4,256,156.7,256ZM16,224H352a96.18,96.18,0,0,0,93.8-116.7c-7.6-36.2-36.9-65.5-73.1-73.1a96.22,96.22,0,0,0-114.9,75.5c-1.9,9.6,6.1,18.3,15.8,18.3h32.8c6.7,0,13.1-3.8,15.2-10.1a32,32,0,0,1,62,15.5C381,149.1,366.2,160,350.2,160H16A16,16,0,0,0,0,176v32A16,16,0,0,0,16,224Zm384,32H243.7a126.41,126.41,0,0,1,39.8,64H400a48,48,0,1,1-41.6,71.6c-2.9-5-8.7-7.6-14.5-7.6H310.1c-10.9,0-19,10.8-15.3,21.1,17.8,50.6,70.5,84.8,129.4,72.3,41.2-8.7,75.1-41.6,84.7-82.7C526,321.5,470.5,256,400,256Z" transform="translate(0 -32.04)"/></svg>
